<?xml version="1.0" standalone="no"?>
<!DOCTYPE svg PUBLIC "-//W3C//DTD SVG 20010904//EN"
 "http://www.w3.org/TR/2001/REC-SVG-20010904/DTD/svg10.dtd">
<svg version="1.0" xmlns="http://www.w3.org/2000/svg"
 width="1250.000000pt" height="1250.000000pt" viewBox="0 0 1250.000000 1250.000000"
 preserveAspectRatio="xMidYMid meet">
<metadata>
Created by potrace 1.14, written by Peter Selinger 2001-2017
</metadata>
<g transform="translate(0.000000,1250.000000) scale(0.100000,-0.100000)"
fill="#000000" stroke="none">
<path d="M604 6251 l1 -5646 5645 0 5645 0 0 5645 0 5645 -5646 1 -5646 1 1
-5646z m10036 4894 c0 0 -991 -991 -2203 -2203 l-2203 -2203 -2197 2197
c-1208 1208 -2197 2199 -2197 2203 0 3 1980 6 4400 6 2420 0 4400 0 4400 0z
m504 -4897 c-1 -2416 -2 -4398 -3 -4404 0 -6 -991 979 -2202 2189 l-2200 2201
2203 2203 c1212 1212 2203 2203 2203 2203 0 0 -1 -1977 -1 -4392z m-7597 2169
l2183 -2182 -2183 -2183 c-1200 -1200 -2184 -2182 -2187 -2182 -3 0 -5 1964
-5 4365 0 2401 2 4365 5 4365 3 0 987 -982 2187 -2183z m7047 -7057 c-3 -3
-1970 -5 -4370 -5 l-4364 0 2187 2187 2188 2188 2182 -2182 c1200 -1200 2180
-2185 2177 -2188z"/>
</g>
</svg>
